<svg id="Layer_1" data-name="Layer 1" xmlns="http://www.w3.org/2000/svg" xmlns:xlink="http://www.w3.org/1999/xlink" viewBox="0 0 137.51 43.25"><defs><style>.cls-1{fill:#ececec;}.cls-2{fill:url(#Dégradé_sans_nom_2);}.cls-3{fill:#fff;}</style><linearGradient id="Dégradé_sans_nom_2" x1="-543.35" y1="239.98" x2="-542.55" y2="239.98" gradientTransform="matrix(43.58, -8.81, 8.81, 43.58, 21563.3, -15236.71)" gradientUnits="userSpaceOnUse"><stop offset="0" stop-color="#95bcd7"/><stop offset="0.15" stop-color="#95bcd7"/><stop offset="0.36" stop-color="#78c1dc"/><stop offset="0.46" stop-color="#68c4de"/><stop offset="0.75" stop-color="#74c8ee"/><stop offset="1" stop-color="#74c8ee"/></linearGradient></defs><title>logo-LV-blanc—vecto</title><path class="cls-1" d="M24,35.33l-7.35-6a.44.44,0,0,1-.07-.61L30.64,10.18c0-.35,0-.78-.33-.78h-.08a.44.44,0,0,0-.21.1L7.57,29.61a.61.61,0,0,0,.13.75l15.86,5.73A.44.44,0,0,0,24,35.33Z"/><path class="cls-2" d="M29.68.78,30,.48l.46-.41Z"/><path class="cls-3" d="M30,.48.11,26.9a.33.33,0,0,0,.11.56L7.29,29.9a.33.33,0,0,0,.33-.06l23-19.67V0A7.64,7.64,0,0,0,30,.48Z"/><path class="cls-3" d="M24.16,35.57v0a.31.31,0,0,0-.18-.22L7.66,29.93l-.1,0H7.49a.27.27,0,0,0-.15.08L1.73,35.19a.3.3,0,0,0,.11.5l22.32,7.56V35.57Z"/><path class="cls-1" d="M40.54,34.33H37.85V12.27h2.68Z"/><path class="cls-1" d="M135.81,23.84A5.92,5.92,0,0,0,131.45,22a6.16,6.16,0,0,0,.07,12.31,5.56,5.56,0,0,0,3.27-1,6.63,6.63,0,0,0,2.08-2.38H134a2.89,2.89,0,0,1-2.47,1.16,3.11,3.11,0,0,1-3.27-2.56l-.06-.48h9.29A6.38,6.38,0,0,0,135.81,23.84Zm-7.59,3.25.08-.49a3.34,3.34,0,0,1,6.36,0l.08.49Z"/><path class="cls-1" d="M43.56,17.66a1.56,1.56,0,0,1,.54-1.21A1.71,1.71,0,0,1,45.26,16a1.66,1.66,0,0,1,1.14.48,1.69,1.69,0,0,1,0,2.44,1.69,1.69,0,0,1-1.14.47,1.73,1.73,0,0,1-1.16-.47A1.55,1.55,0,0,1,43.56,17.66Zm3,16.67H43.87V22h2.71Z"/><path class="cls-1" d="M49.92,22h2.71c0,.68,0,2.69,0,3.2a5.31,5.31,0,0,1,1.75-2.27,4.66,4.66,0,0,1,3-.93,4.15,4.15,0,0,1,2.92,1,3.58,3.58,0,0,1,1.14,2.61v8.7H58.73V26.9a2.46,2.46,0,0,0-.62-1.51,2.39,2.39,0,0,0-1.75-.69,3.79,3.79,0,0,0-1.51.3,3.63,3.63,0,0,0-1.19.81A3.52,3.52,0,0,0,52.9,27a4.26,4.26,0,0,0-.27,1.53v5.79H49.92Z"/><path class="cls-1" d="M73.31,22l1.61,1.58c-.72.66-3.38,3.21-4.1,3.87.85,1.13,4.12,5.71,5,6.84H72.69c-.62-.85-3.15-4.21-3.76-5.06l-1.55,1.41v3.64H64.67V12.27h2.71V27.55C68.39,26.59,72.29,23,73.31,22Z"/><path class="cls-1" d="M82.49,34.33C81.36,32.2,77.21,24.16,76.14,22h2.94c.72,1.39,3.42,7.31,3.42,7.31s2.73-5.91,3.45-7.31h2.91C87.78,24.16,83.58,32.2,82.49,34.33Z"/><path class="cls-1" d="M89.51,28.3a6,6,0,0,1,.5-2.41,6.47,6.47,0,0,1,3.29-3.36A5.62,5.62,0,0,1,95.65,22a5,5,0,0,1,1.49.21,5.81,5.81,0,0,1,1.14.48,3.33,3.33,0,0,1,.76.57,2.17,2.17,0,0,1,.36.45V22h2.67v12.3H99.39s0-1.44,0-1.47a3.94,3.94,0,0,1-.36.37,3.39,3.39,0,0,1-.74.51,5.58,5.58,0,0,1-1.12.43,5.64,5.64,0,0,1-1.5.18,6.1,6.1,0,0,1-2.48-.5,6.32,6.32,0,0,1-2-1.32,5.93,5.93,0,0,1-1.74-4.22Zm2.67-.17a3.85,3.85,0,0,0,.26,1.43,3.32,3.32,0,0,0,.74,1.14,3.48,3.48,0,0,0,1.14.76,4,4,0,0,0,2.92,0,3.4,3.4,0,0,0,1.14-.77,3.51,3.51,0,0,0,.74-1.16,3.8,3.8,0,0,0,.26-1.4,3.69,3.69,0,0,0-.26-1.39,3.24,3.24,0,0,0-.74-1.12,3.63,3.63,0,0,0-1.14-.74,3.76,3.76,0,0,0-1.46-.28,3.93,3.93,0,0,0-1.46.26,3.33,3.33,0,0,0-1.89,1.87A3.67,3.67,0,0,0,92.18,28.13Z"/><path class="cls-1" d="M108.09,34.33h-2.68V12.27h2.68Z"/><path class="cls-1" d="M122.84,34.33h-2.68V31.17a5.75,5.75,0,0,1-1.71,2.22,4.57,4.57,0,0,1-3,.95,4.26,4.26,0,0,1-3-1,3.48,3.48,0,0,1-1.14-2.59V22h2.71V29.5a2.36,2.36,0,0,0,.61,1.48,2.44,2.44,0,0,0,1.77.66,3.85,3.85,0,0,0,1.5-.28,3.47,3.47,0,0,0,1.17-.79,3.69,3.69,0,0,0,.78-1.21,4.07,4.07,0,0,0,.28-1.53V22h2.68Z"/></svg>